<svg version="1.1" viewBox="0.0 0.0 960.0 720.0" fill="none" stroke="none" stroke-linecap="square" stroke-miterlimit="10" xmlns:xlink="http://www.w3.org/1999/xlink" xmlns="http://www.w3.org/2000/svg"><clipPath id="p.0"><path d="m0 0l960.0 0l0 720.0l-960.0 0l0 -720.0z" clip-rule="nonzero"/></clipPath><g clip-path="url(#p.0)"><path fill="#000000" fill-opacity="0.0" d="m0 0l960.0 0l0 720.0l-960.0 0z" fill-rule="evenodd"/><path fill="#000000" d="m225.0 121.13392l0 0c0 -1.7685013 1.4336548 -3.2021637 3.2021637 -3.2021637l89.59566 0c0.8492737 0 1.6637573 0.33737183 2.2642822 0.9378967c0.6005249 0.6005173 0.9378967 1.4150009 0.9378967 2.264267l0 12.808281c0 1.7684937 -1.4336548 3.2021637 -3.202179 3.2021637l-89.59566 0l0 0c-1.7685089 0 -3.2021637 -1.43367 -3.2021637 -3.2021637z" fill-rule="evenodd"/><path stroke="#000000" stroke-width="1.0" stroke-linejoin="round" stroke-linecap="butt" d="m225.0 121.13392l0 0c0 -1.7685013 1.4336548 -3.2021637 3.2021637 -3.2021637l89.59566 0c0.8492737 0 1.6637573 0.33737183 2.2642822 0.9378967c0.6005249 0.6005173 0.9378967 1.4150009 0.9378967 2.264267l0 12.808281c0 1.7684937 -1.4336548 3.2021637 -3.202179 3.2021637l-89.59566 0l0 0c-1.7685089 0 -3.2021637 -1.43367 -3.2021637 -3.2021637z" fill-rule="evenodd"/><path fill="#000000" d="m225.0 153.13393l0 0c0 -1.7685089 1.4336548 -3.2021637 3.2021637 -3.2021637l89.59566 0c0.8492737 0 1.6637573 0.33737183 2.2642822 0.93788147c0.6005249 0.6005249 0.9378967 1.4150085 0.9378967 2.2642822l0 12.808273c0 1.7684937 -1.4336548 3.2021637 -3.202179 3.2021637l-89.59566 0l0 0c-1.7685089 0 -3.2021637 -1.43367 -3.2021637 -3.2021637z" fill-rule="evenodd"/><path stroke="#000000" stroke-width="1.0" stroke-linejoin="round" stroke-linecap="butt" d="m225.0 153.13393l0 0c0 -1.7685089 1.4336548 -3.2021637 3.2021637 -3.2021637l89.59566 0c0.8492737 0 1.6637573 0.33737183 2.2642822 0.93788147c0.6005249 0.6005249 0.9378967 1.4150085 0.9378967 2.2642822l0 12.808273c0 1.7684937 -1.4336548 3.2021637 -3.202179 3.2021637l-89.59566 0l0 0c-1.7685089 0 -3.2021637 -1.43367 -3.2021637 -3.2021637z" fill-rule="evenodd"/><path fill="#000000" d="m225.0 185.13393l0 0c0 -1.7685089 1.4336548 -3.2021637 3.2021637 -3.2021637l89.59566 0c0.8492737 0 1.6637573 0.33737183 2.2642822 0.93788147c0.6005249 0.6005249 0.9378967 1.4150085 0.9378967 2.2642822l0 12.808273c0 1.7684937 -1.4336548 3.2021637 -3.202179 3.2021637l-89.59566 0l0 0c-1.7685089 0 -3.2021637 -1.43367 -3.2021637 -3.2021637z" fill-rule="evenodd"/><path stroke="#000000" stroke-width="1.0" stroke-linejoin="round" stroke-linecap="butt" d="m225.0 185.13393l0 0c0 -1.7685089 1.4336548 -3.2021637 3.2021637 -3.2021637l89.59566 0c0.8492737 0 1.6637573 0.33737183 2.2642822 0.93788147c0.6005249 0.6005249 0.9378967 1.4150085 0.9378967 2.2642822l0 12.808273c0 1.7684937 -1.4336548 3.2021637 -3.202179 3.2021637l-89.59566 0l0 0c-1.7685089 0 -3.2021637 -1.43367 -3.2021637 -3.2021637z" fill-rule="evenodd"/></g></svg>